<svg xmlns="http://www.w3.org/2000/svg" viewBox="0 0 1024 1024" width="1024" height="1024">>
  <style>
    .st0{fill:#fff}.st1{fill:red}
  </style>
  <path d="M513 308c20 0 38 3 56 8L793 93a503 503 0 00-559 0l224 223c18-5 36-8 55-8z" class="st0"/>
  <path d="M571 324l-4-1a200 200 0 00-107 0l-4 1L223 92l7-5a510 510 0 01567 0l7 5-233 232zm-58-22c18 0 36 2 54 7L782 94a496 496 0 00-537 0l215 215c18-5 36-7 53-7z"/>
  <path d="M934 234L711 458a204 204 0 010 111l223 224a503 503 0 000-559z" class="st0"/>
  <path d="M935 804L703 571l1-4a200 200 0 000-107l-1-4 232-233 5 7a509 509 0 010 567l-5 7zM718 567l215 215a496 496 0 000-537L718 460a210 210 0 010 107z"/>
  <path d="M513 718c-19 0-38-3-55-7L234 934a503 503 0 00559 0L569 711c-18 5-36 7-56 7z" class="st0"/>
  <path d="M513 1025c-101 0-199-29-283-85l-7-5 233-232 4 1a200 200 0 00107 0l4-1 233 232-7 5c-84 56-182 85-284 85zm-268-92a496 496 0 00537 0L567 718a210 210 0 01-107 0L245 933z"/>
  <g>
    <path d="M308 513c0-19 3-38 8-55L93 234a503 503 0 000 559l223-224c-5-18-8-36-8-56z" class="st0"/>
    <path d="M92 804l-5-7a509 509 0 010-567l5-7 232 233-1 4a200 200 0 000 107l1 4L92 804zm2-559a496 496 0 000 537l215-215a210 210 0 010-107L94 245z"/>
  </g>
  <g>
    <path d="M316 569L93 793c37 56 85 104 141 141l224-223c-69-20-122-73-142-142z" class="st1"/>
    <path d="M235 943l-5-3c-57-38-105-86-143-143l-3-5 236-236 3 11a199 199 0 00137 137l11 3-236 236zM102 794c35 52 79 96 131 131l212-211a212 212 0 01-132-132L102 794z"/>
  </g>
  <g>
    <path d="M569 711l224 223c56-37 104-85 141-141L711 569c-20 69-73 122-142 142z" class="st1"/>
    <path d="M792 943L556 707l11-3a199 199 0 00137-137l3-11 236 236-3 5c-38 57-86 105-143 143l-5 3zM582 714l212 211c52-35 96-80 131-132L714 583a212 212 0 01-132 132z"/>
  </g>
  <g>
    <path d="M711 458l223-224c-37-56-85-104-141-141L569 316c69 20 122 73 142 142z" class="st1"/>
    <path d="M707 471l-3-11a199 199 0 00-137-137l-11-3L792 84l5 3c57 38 105 86 143 143l3 5-236 236zM582 313a212 212 0 01132 132l211-212c-35-52-80-96-132-131L582 313z"/>
  </g>
  <g>
    <path d="M93 234l223 224c19-69 73-123 142-142L234 93c-56 37-104 85-141 141z" class="st1"/>
    <path d="M320 471L84 235l3-5c38-57 86-105 143-143l5-3 236 236-11 3a199 199 0 00-137 137l-3 11zM102 233l211 212a212 212 0 01132-132L233 102c-52 35-96 79-131 131z"/>
  </g>
</svg>